<?xml version="1.0" encoding="utf-8"?>
<!-- Generator: Adobe Illustrator 24.1.3, SVG Export Plug-In . SVG Version: 6.00 Build 0)  -->
<svg version="1.1" id="Layer_1" xmlns="http://www.w3.org/2000/svg" xmlns:xlink="http://www.w3.org/1999/xlink" x="0px" y="0px"
	 viewBox="0 0 914 75" style="enable-background:new 0 0 914 75;" xml:space="preserve">
<style type="text/css">
	.st0{fill:#FFFFFF;}
	.st1{fill:none;stroke:url(#SVGID_1_);stroke-width:3;stroke-miterlimit:10;}
	.st2{fill:none;stroke:#000000;stroke-width:3;stroke-miterlimit:10;}
	.st3{fill:none;stroke:url(#SVGID_2_);stroke-width:3;stroke-miterlimit:10;}
</style>
<g>
	<path class="st0" d="M438.11,62.33c0.46-0.19,0.71-0.27,0.93-0.4c2.22-1.37,4.43-2.77,6.65-4.13c1.38-0.84,2.77-1.68,4.2-2.43
		c0.38-0.2,0.95-0.15,1.38-0.03c0.14,0.04,0.2,0.69,0.14,1.04c-0.28,1.74-0.57,3.48-0.92,5.21c-0.41,2.05-1.12,4-2.19,5.81
		c-0.47,0.79-0.95,1.58-1.46,2.34c-0.83,1.22,0.43,3.46,1.94,3.25c0.76-0.11,1.27-0.52,1.66-1.02c2.37-3.05,3.9-6.5,4.6-10.3
		c0.35-1.88,0.53-3.78,0.74-5.68c0.06-0.55,0.3-0.82,0.82-0.78c0.37,0.03,0.78,0.1,1.09,0.29c1.69,0.98,3.35,2,5.03,3.01
		c1.59,0.96,3.18,1.94,4.78,2.89c0.17,0.1,0.46,0.18,0.59,0.1c0.13-0.07,0.2-0.39,0.16-0.56c-0.17-0.8-0.37-1.6-0.58-2.39
		c-0.16-0.61-0.4-1.2-0.51-1.81c-0.36-1.96,1.1-3.62,3.09-3.59c1.1,0.02,1.96,0.52,2.63,1.34c0.45,0.55,0.97,0.75,1.65,0.65
		c0.33-0.05,0.68-0.04,1.01-0.06c0.55-0.04,0.82-0.22,0.68-0.87c-0.27-1.25-0.13-2.39,0.81-3.42c1.16-1.26,2.57-2.09,4.3-1.42
		c0.92,0.36,1.87,0.65,2.79,1.02c0.93,0.37,1.21,0.21,1.22-0.76c0-0.61,0.09-1.23-0.03-1.81c-0.13-0.66-0.29-1.42-0.7-1.91
		c-0.55-0.67-1.31-1.2-2.07-1.65c-1.14-0.67-2.42-1.12-3.51-1.85c-1.21-0.81-2.32-1.74-3.82-1.98c-0.41-0.07-0.47-0.4-0.23-0.72
		c0.17-0.23,0.35-0.47,0.58-0.64c1.11-0.81,2.19-1.68,3.37-2.38c1.58-0.94,3.23-1.75,4.85-2.63c0.77-0.42,0.97-1.12,0.45-1.65
		c-0.22-0.22-0.57-0.38-0.88-0.44c-1-0.17-2.02-0.25-3.02-0.42c-1.47-0.24-2.45-0.91-1.77-2.7c0.11-0.29,0.25-0.57,0.43-0.82
		c0.48-0.67,1.05-1.28,1.48-1.97c0.65-1.02-0.02-2.37-1.19-2.46c-0.56-0.05-0.78-0.38-0.81-0.85c-0.05-0.99-0.14-1.99-0.05-2.96
		c0.16-1.78,0.46-3.55,0.67-5.33c0.04-0.34-0.06-0.7-0.11-1.17c-0.27,0.18-0.38,0.23-0.46,0.31c-1.47,1.46-3.26,2.6-4.39,4.4
		c-0.04,0.06-0.1,0.1-0.16,0.15c-1.1,0.99-1.85,0.95-2.86-0.13c-0.51-0.55-1.04-1.08-1.57-1.61c-0.34-0.34-0.64-0.33-0.84,0.14
		c-0.33,0.78-0.67,1.55-0.96,2.35c-0.47,1.3-1.2,2.43-2.21,3.36c-1.09,1-2.3,0.6-2.41-0.88c-0.11-1.33-0.02-2.72,0.24-4.03
		c0.4-2.09,1.02-4.13,1.53-6.19c0.04-0.16,0-0.39-0.09-0.51c-0.07-0.08-0.33-0.06-0.47,0.01c-0.91,0.43-1.83,0.87-2.72,1.34
		c-1.81,0.94-3.11,0.69-4.16-0.77c-0.56-0.77-0.88-1.71-1.28-2.59c-0.92-2-1.82-4-2.74-6c-0.05-0.1-0.21-0.23-0.31-0.22
		c-0.1,0.02-0.21,0.17-0.25,0.29c-0.41,1.49-0.83,2.98-1.2,4.48c-0.38,1.53-1.05,2.91-2.02,4.13c-0.64,0.81-1.45,1.44-2.56,1.16
		c-1.24-0.31-2.44-0.76-3.67-1.13c-0.28-0.09-0.58-0.1-0.88-0.15c0.01,0.3-0.04,0.61,0.03,0.9c0.48,1.95,1.08,3.87,1.46,5.84
		c0.22,1.15,0.24,2.38,0.09,3.54c-0.14,1.04-1.11,2.01-2.16,1.01c-0.69-0.66-1.37-1.38-1.85-2.2c-0.58-0.99-0.96-2.11-1.41-3.18
		c-0.37-0.86-0.69-0.92-1.37-0.28c-0.68,0.65-1.36,1.3-2.11,1.87c-0.23,0.17-0.75,0.21-0.99,0.07c-0.6-0.37-1.24-0.8-1.66-1.36
		c-1.34-1.8-2.6-3.68-3.87-5.53c-0.13-0.19-0.18-0.44-0.27-0.66c-0.13,0.09-0.27,0.18-0.4,0.27c-0.01,0.32-0.07,0.64-0.04,0.96
		c0.27,2.75,0.55,5.49,0.82,8.24c0.04,0.41,0.05,0.82,0.01,1.23c-0.13,1.44-0.36,1.86-1.78,1.74c-0.59-0.05-0.91,0.33-0.7,0.88
		c0.36,0.93,0.81,1.84,1.26,2.74c0.37,0.73,0.85,1.4,1.17,2.14c0.29,0.68-0.02,1.37-0.68,1.72c-0.38,0.2-0.8,0.36-1.22,0.44
		c-1.57,0.28-3.15,0.51-4.73,0.78c-0.3,0.05-0.59,0.18-1.07,0.34c0.39,0.3,0.58,0.49,0.8,0.61c2.09,1.16,4.23,2.25,6.27,3.49
		c1.41,0.86,2.71,1.92,4.01,2.96c0.56,0.45,0.44,0.91-0.22,1.22c-0.42,0.19-0.85,0.36-1.26,0.56c-2.35,1.13-4.71,2.24-7.04,3.41
		c-1.25,0.63-1.87,1.73-1.79,3.15c0.03,0.63,0.18,1.25,0.29,1.87c0.13,0.71,0.41,0.87,1.06,0.58c0.53-0.23,1.04-0.51,1.56-0.76
		c1.54-0.73,3.04-0.89,4.51,0.21c1.54,1.14,2.02,2.82,2.42,4.55c0.15,0.66,0.36,0.84,0.97,0.5c0.18-0.1,0.33-0.28,0.49-0.42
		c0.48-0.44,0.93-0.93,1.45-1.31c1.73-1.24,3.85-0.62,4.7,1.33c0.05,0.11,0.07,0.25,0.16,0.32c0.74,0.57,0.51,1.27,0.27,1.97
		c-0.48,1.42-0.96,2.84-1.42,4.27C438.26,61.44,438.22,61.77,438.11,62.33z"/>
	<path class="st0" d="M438.11,62.33c0.11-0.56,0.15-0.89,0.25-1.19c0.46-1.43,0.94-2.85,1.42-4.27c0.24-0.71,0.47-1.4-0.27-1.97
		c-0.09-0.07-0.11-0.21-0.16-0.32c-0.85-1.95-2.97-2.56-4.7-1.33c-0.53,0.38-0.97,0.87-1.45,1.31c-0.16,0.15-0.3,0.32-0.49,0.42
		c-0.61,0.33-0.82,0.16-0.97-0.5c-0.4-1.72-0.89-3.41-2.42-4.55c-1.47-1.09-2.97-0.93-4.51-0.21c-0.52,0.25-1.03,0.53-1.56,0.76
		c-0.66,0.29-0.94,0.13-1.06-0.58c-0.11-0.62-0.25-1.24-0.29-1.87c-0.08-1.42,0.54-2.52,1.79-3.15c2.33-1.17,4.69-2.28,7.04-3.41
		c0.41-0.2,0.84-0.37,1.26-0.56c0.65-0.31,0.78-0.77,0.22-1.22c-1.3-1.03-2.6-2.09-4.01-2.96c-2.04-1.25-4.18-2.33-6.27-3.49
		c-0.22-0.12-0.41-0.31-0.8-0.61c0.48-0.16,0.77-0.29,1.07-0.34c1.57-0.27,3.16-0.5,4.73-0.78c0.42-0.08,0.84-0.24,1.22-0.44
		c0.66-0.36,0.97-1.04,0.68-1.72c-0.32-0.75-0.8-1.42-1.17-2.14c-0.45-0.9-0.9-1.8-1.26-2.74c-0.21-0.55,0.11-0.93,0.7-0.88
		c1.42,0.12,1.65-0.29,1.78-1.74c0.04-0.41,0.03-0.82-0.01-1.23c-0.27-2.75-0.55-5.49-0.82-8.24c-0.03-0.31,0.02-0.64,0.04-0.96
		c0.13-0.09,0.27-0.18,0.4-0.27c0.09,0.22,0.13,0.47,0.27,0.66c1.27,1.85,2.53,3.73,3.87,5.53c0.42,0.56,1.05,0.98,1.66,1.36
		c0.24,0.15,0.76,0.11,0.99-0.07c0.74-0.57,1.42-1.23,2.11-1.87c0.68-0.64,1-0.58,1.37,0.28c0.46,1.07,0.83,2.18,1.41,3.18
		c0.48,0.82,1.16,1.54,1.85,2.2c1.05,1,2.02,0.03,2.16-1.01c0.15-1.16,0.13-2.39-0.09-3.54c-0.38-1.97-0.97-3.89-1.46-5.84
		c-0.07-0.28-0.02-0.6-0.03-0.9c0.29,0.05,0.59,0.07,0.88,0.15c1.22,0.37,2.43,0.82,3.67,1.13c1.11,0.28,1.92-0.35,2.56-1.16
		c0.97-1.22,1.64-2.61,2.02-4.13c0.37-1.5,0.79-2.99,1.2-4.48c0.03-0.12,0.15-0.27,0.25-0.29c0.09-0.01,0.26,0.11,0.31,0.22
		c0.92,2,1.82,4,2.74,6c0.4,0.88,0.72,1.82,1.28,2.59c1.05,1.45,2.35,1.71,4.16,0.77c0.9-0.47,1.81-0.91,2.72-1.34
		c0.13-0.06,0.4-0.08,0.47-0.01c0.1,0.12,0.13,0.35,0.09,0.51c-0.51,2.07-1.13,4.11-1.53,6.19c-0.25,1.31-0.34,2.7-0.24,4.03
		c0.12,1.49,1.33,1.88,2.41,0.88c1.01-0.93,1.74-2.06,2.21-3.36c0.29-0.79,0.63-1.57,0.96-2.35c0.2-0.47,0.5-0.48,0.84-0.14
		c0.53,0.53,1.06,1.07,1.57,1.61c1.01,1.08,1.75,1.11,2.86,0.13c0.05-0.05,0.12-0.09,0.16-0.15c1.13-1.8,2.92-2.94,4.39-4.4
		c0.08-0.08,0.19-0.13,0.46-0.31c0.05,0.47,0.15,0.83,0.11,1.17c-0.21,1.78-0.5,3.55-0.67,5.33c-0.09,0.98,0,1.98,0.05,2.96
		c0.02,0.47,0.25,0.8,0.81,0.85c1.17,0.1,1.84,1.44,1.19,2.46c-0.44,0.69-1,1.31-1.48,1.97c-0.18,0.25-0.32,0.53-0.43,0.82
		c-0.68,1.79,0.3,2.46,1.77,2.7c1,0.16,2.02,0.24,3.02,0.42c0.31,0.05,0.67,0.21,0.88,0.44c0.52,0.54,0.32,1.24-0.45,1.65
		c-1.61,0.88-3.27,1.68-4.85,2.63c-1.18,0.7-2.26,1.57-3.37,2.38c-0.23,0.17-0.41,0.41-0.58,0.64c-0.24,0.33-0.18,0.66,0.23,0.72
		c1.5,0.24,2.61,1.18,3.82,1.98c1.09,0.73,2.37,1.17,3.51,1.85c0.76,0.45,1.51,0.98,2.07,1.65c0.41,0.49,0.57,1.24,0.7,1.91
		c0.11,0.58,0.03,1.21,0.03,1.81c-0.01,0.97-0.29,1.13-1.22,0.76c-0.92-0.37-1.87-0.66-2.79-1.02c-1.73-0.67-3.14,0.16-4.3,1.42
		c-0.94,1.03-1.08,2.17-0.81,3.42c0.14,0.66-0.13,0.84-0.68,0.87c-0.34,0.02-0.68,0.01-1.01,0.06c-0.68,0.1-1.21-0.1-1.65-0.65
		c-0.67-0.82-1.53-1.32-2.63-1.34c-2-0.03-3.45,1.62-3.09,3.59c0.11,0.61,0.35,1.2,0.51,1.81c0.21,0.79,0.41,1.59,0.58,2.39
		c0.04,0.18-0.03,0.49-0.16,0.56c-0.14,0.08-0.42,0-0.59-0.1c-1.6-0.95-3.19-1.93-4.78-2.89c-1.67-1.01-3.34-2.03-5.03-3.01
		c-0.32-0.18-0.72-0.25-1.09-0.29c-0.52-0.04-0.76,0.23-0.82,0.78c-0.21,1.9-0.4,3.8-0.74,5.68c-0.7,3.79-2.23,7.24-4.6,10.3
		c-0.39,0.5-0.91,0.91-1.66,1.02c-1.51,0.22-2.78-2.02-1.94-3.25c0.52-0.76,0.99-1.55,1.46-2.34c1.07-1.8,1.78-3.76,2.19-5.81
		c0.35-1.73,0.64-3.47,0.92-5.21c0.05-0.35,0-1-0.14-1.04c-0.43-0.12-1.01-0.17-1.38,0.03c-1.43,0.75-2.82,1.59-4.2,2.43
		c-2.23,1.36-4.43,2.76-6.65,4.13C438.82,62.06,438.57,62.13,438.11,62.33z"/>
</g>
<linearGradient id="SVGID_1_" gradientUnits="userSpaceOnUse" x1="0" y1="37.4859" x2="398.7344" y2="37.4859">
	<stop  offset="0" style="stop-color:#FFFFFF"/>
	<stop  offset="1" style="stop-color:#FFFFFF"/>
</linearGradient>
<line class="st1" x1="0" y1="37.49" x2="398.73" y2="37.49"/>
<line class="st2" x1="1095.5" y1="262.5" x2="1095.5" y2="261.5"/>
<linearGradient id="SVGID_2_" gradientUnits="userSpaceOnUse" x1="507.2656" y1="37.4859" x2="906" y2="37.4859">
	<stop  offset="0" style="stop-color:#FFFFFF"/>
	<stop  offset="1" style="stop-color:#FFFFFF"/>
</linearGradient>
<line class="st3" x1="906" y1="37.49" x2="507.27" y2="37.49"/>
</svg>
