<svg id="ëÎÓÈ_1" data-name="ëÎÓÈ 1" xmlns="http://www.w3.org/2000/svg" viewBox="0 0 2000 2000"><defs><style>.cls-1{fill:#fff;}.cls-2{fill:#1b1819;}</style></defs><rect class="cls-1" width="2000" height="2000"/><path class="cls-2" d="M1000,532.22c-154.26,0-279.77,125.5-279.77,279.77v390.65c0,149.14,117.32,271.38,264.51,279.33v107l-47.2-47.2A15.26,15.26,0,1,0,916,1563.39l73.25,73.25c.11.11.24.18.35.29a15,15,0,0,0,1.63,1.33c.21.15.4.3.61.43a15.69,15.69,0,0,0,2.36,1.26h0a15.06,15.06,0,0,0,2.63.8,2.17,2.17,0,0,0,.24.07,1.49,1.49,0,0,0,.21,0,14.88,14.88,0,0,0,2.74.27h0a15.93,15.93,0,0,0,2.91-.28h0c.1,0,.19-.06.29-.09a14.73,14.73,0,0,0,2.58-.78h0a15.69,15.69,0,0,0,2.36-1.26c.21-.13.4-.28.61-.43a15.9,15.9,0,0,0,1.62-1.33c.12-.11.25-.18.36-.29l73.25-73.25a15.26,15.26,0,1,0-21.58-21.58l-47.2,47.2V1482c147.19-8,264.5-130.19,264.5-279.33V812C1279.76,657.72,1154.26,532.22,1000,532.22Zm249.24,670.42c0,132.31-103.63,240.82-234,248.73V1137.53a15.26,15.26,0,0,0-30.52,0v313.84c-130.35-7.91-234-116.42-234-248.73V812c0-137.44,111.81-249.25,249.25-249.25S1249.24,674.55,1249.24,812Z"/><path class="cls-2" d="M1000,737.72A74.27,74.27,0,1,0,1074.27,812,74.35,74.35,0,0,0,1000,737.72Zm0,118A43.75,43.75,0,1,1,1043.75,812,43.79,43.79,0,0,1,1000,855.73Z"/></svg>